<svg width="42" height="42" viewBox="0 0 42 42" fill="none" xmlns="http://www.w3.org/2000/svg">
<path d="M37.5725 7.6125L35.2275 6.6325V22.435L39.48 12.18C40.1975 10.395 39.375 8.3475 37.5725 7.6125V7.6125ZM3.44751 14.0875L12.1275 35C12.3831 35.6363 12.8191 36.184 13.3818 36.5757C13.9446 36.9675 14.6096 37.1862 15.295 37.205C15.75 37.205 16.2225 37.1175 16.6775 36.925L29.575 31.5875C30.8875 31.045 31.6925 29.75 31.7275 28.455C31.745 28 31.6575 27.4925 31.5 27.0375L22.75 6.125C22.5027 5.48453 22.0683 4.93336 21.5033 4.5432C20.9384 4.15305 20.2691 3.94199 19.5825 3.9375C19.1275 3.9375 18.6725 4.0425 18.235 4.2L5.35501 9.5375C4.49885 9.8881 3.81696 10.5644 3.45926 11.4176C3.10156 12.2708 3.09733 13.2312 3.44751 14.0875V14.0875ZM31.71 7.4375C31.71 6.50924 31.3413 5.619 30.6849 4.96263C30.0285 4.30625 29.1383 3.9375 28.21 3.9375H25.6725L31.71 18.5325" fill="#838383"/>
</svg>
