<svg width="42" height="42" viewBox="0 0 42 42" fill="none" xmlns="http://www.w3.org/2000/svg">
<path d="M20.9825 3.5C11.3225 3.5 3.5 11.34 3.5 21C3.5 30.66 11.3225 38.5 20.9825 38.5C30.66 38.5 38.5 30.66 38.5 21C38.5 11.34 30.66 3.5 20.9825 3.5ZM28 28C27.8381 28.1622 27.6458 28.2909 27.4341 28.3788C27.2224 28.4666 26.9954 28.5118 26.7663 28.5118C26.5371 28.5118 26.3101 28.4666 26.0984 28.3788C25.8867 28.2909 25.6944 28.1622 25.5325 28L19.775 22.2425C19.6096 22.0804 19.4781 21.8871 19.388 21.6739C19.2979 21.4606 19.251 21.2315 19.25 21V14C19.25 13.0375 20.0375 12.25 21 12.25C21.9625 12.25 22.75 13.0375 22.75 14V20.2825L28 25.5325C28.6825 26.215 28.6825 27.3175 28 28Z" fill="#838383"/>
</svg>
