<svg width="104" height="92" viewBox="0 0 104 92" fill="none" xmlns="http://www.w3.org/2000/svg">
<g filter="url(#filter0_ddi)">
<rect x="15" y="15" width="72" height="70" rx="35" fill="#CCCCCC" fill-opacity="0.7"/>
</g>
<g filter="url(#filter1_d)">
<path d="M50.5195 66.4688C47.2513 66.4688 44.6992 65.1667 42.8633 62.5625C41.0404 59.9453 40.1289 56.3906 40.1289 51.8984C40.1289 47.4453 41.0469 43.9102 42.8828 41.293C44.7318 38.6628 47.2773 37.3477 50.5195 37.3477C53.7617 37.3477 56.2943 38.6562 58.1172 41.2734C59.9531 43.8776 60.8711 47.4128 60.8711 51.8789C60.8711 56.3711 59.9596 59.9258 58.1367 62.543C56.3138 65.1602 53.7747 66.4688 50.5195 66.4688ZM45.4609 60.3164C46.6589 62.3737 48.3451 63.4023 50.5195 63.4023C52.694 63.4023 54.3737 62.3802 55.5586 60.3359C56.7435 58.2786 57.3359 55.4661 57.3359 51.8984C57.3359 48.3828 56.737 45.5964 55.5391 43.5391C54.3411 41.4688 52.668 40.4336 50.5195 40.4336C48.3711 40.4336 46.6914 41.4688 45.4805 43.5391C44.2695 45.6094 43.6641 48.3893 43.6641 51.8789C43.6641 55.4466 44.263 58.2591 45.4609 60.3164Z" fill="#848484"/>
</g>
<defs>
<filter id="filter0_ddi" x="0" y="0" width="104" height="102" filterUnits="userSpaceOnUse" color-interpolation-filters="sRGB">
<feFlood flood-opacity="0" result="BackgroundImageFix"/>
<feColorMatrix in="SourceAlpha" type="matrix" values="0 0 0 0 0 0 0 0 0 0 0 0 0 0 0 0 0 0 127 0"/>
<feOffset dx="-5" dy="-5"/>
<feGaussianBlur stdDeviation="5"/>
<feColorMatrix type="matrix" values="0 0 0 0 1 0 0 0 0 1 0 0 0 0 1 0 0 0 0.66 0"/>
<feBlend mode="normal" in2="BackgroundImageFix" result="effect1_dropShadow"/>
<feColorMatrix in="SourceAlpha" type="matrix" values="0 0 0 0 0 0 0 0 0 0 0 0 0 0 0 0 0 0 127 0"/>
<feOffset dx="5" dy="5"/>
<feGaussianBlur stdDeviation="6"/>
<feColorMatrix type="matrix" values="0 0 0 0 0 0 0 0 0 0 0 0 0 0 0 0 0 0 0.1 0"/>
<feBlend mode="normal" in2="effect1_dropShadow" result="effect2_dropShadow"/>
<feBlend mode="normal" in="SourceGraphic" in2="effect2_dropShadow" result="shape"/>
<feColorMatrix in="SourceAlpha" type="matrix" values="0 0 0 0 0 0 0 0 0 0 0 0 0 0 0 0 0 0 127 0" result="hardAlpha"/>
<feOffset dx="-3" dy="-3"/>
<feGaussianBlur stdDeviation="5"/>
<feComposite in2="hardAlpha" operator="arithmetic" k2="-1" k3="1"/>
<feColorMatrix type="matrix" values="0 0 0 0 1 0 0 0 0 1 0 0 0 0 1 0 0 0 0.29 0"/>
<feBlend mode="normal" in2="shape" result="effect3_innerShadow"/>
</filter>
<filter id="filter1_d" x="36.1289" y="37.3477" width="28.7422" height="37.1211" filterUnits="userSpaceOnUse" color-interpolation-filters="sRGB">
<feFlood flood-opacity="0" result="BackgroundImageFix"/>
<feColorMatrix in="SourceAlpha" type="matrix" values="0 0 0 0 0 0 0 0 0 0 0 0 0 0 0 0 0 0 127 0"/>
<feOffset dy="4"/>
<feGaussianBlur stdDeviation="2"/>
<feColorMatrix type="matrix" values="0 0 0 0 0 0 0 0 0 0 0 0 0 0 0 0 0 0 0.25 0"/>
<feBlend mode="normal" in2="BackgroundImageFix" result="effect1_dropShadow"/>
<feBlend mode="normal" in="SourceGraphic" in2="effect1_dropShadow" result="shape"/>
</filter>
</defs>
</svg>
