<svg width="102" height="102" viewBox="0 0 102 102" fill="none" xmlns="http://www.w3.org/2000/svg">
<g filter="url(#filter0_ddi)">
<circle cx="50" cy="50" r="35" fill="black" fill-opacity="0.91"/>
</g>
<path d="M46.1914 50.9922V48.0234H49.5703C51.1849 48.0234 52.5065 47.5612 53.5352 46.6367C54.5638 45.6992 55.0781 44.5143 55.0781 43.082C55.0781 41.6497 54.6029 40.5104 53.6523 39.6641C52.7018 38.8177 51.3542 38.3945 49.6094 38.3945C47.9948 38.3945 46.6797 38.8242 45.6641 39.6836C44.6484 40.543 44.0625 41.7148 43.9062 43.1992H40.5273C40.7227 40.8034 41.6471 38.8958 43.3008 37.4766C44.9674 36.0573 47.1224 35.3477 49.7656 35.3477C52.3047 35.3477 54.4141 36.0312 56.0938 37.3984C57.7734 38.7656 58.6133 40.5039 58.6133 42.6133C58.6133 44.3711 58.0924 45.849 57.0508 47.0469C56.0091 48.2448 54.6029 49 52.832 49.3125V49.3906C54.9674 49.5208 56.6667 50.2044 57.9297 51.4414C59.1927 52.6654 59.8242 54.2669 59.8242 56.2461C59.8242 57.8216 59.3815 59.2409 58.4961 60.5039C57.6107 61.7669 56.4128 62.7435 54.9023 63.4336C53.3919 64.1237 51.7188 64.4688 49.8828 64.4688C46.9661 64.4688 44.6159 63.7396 42.832 62.2812C41.0482 60.8229 40.0911 58.9089 39.9609 56.5391H43.3398C43.4961 58.0104 44.1536 59.1953 45.3125 60.0938C46.4714 60.9792 47.9818 61.4219 49.8438 61.4219C51.7057 61.4219 53.2357 60.9466 54.4336 59.9961C55.6445 59.0456 56.25 57.8346 56.25 56.3633C56.25 54.7096 55.6641 53.401 54.4922 52.4375C53.3333 51.474 51.7448 50.9922 49.7266 50.9922H46.1914Z" fill="#848484"/>
<defs>
<filter id="filter0_ddi" x="0" y="0" width="102" height="102" filterUnits="userSpaceOnUse" color-interpolation-filters="sRGB">
<feFlood flood-opacity="0" result="BackgroundImageFix"/>
<feColorMatrix in="SourceAlpha" type="matrix" values="0 0 0 0 0 0 0 0 0 0 0 0 0 0 0 0 0 0 127 0"/>
<feOffset dx="-5" dy="-5"/>
<feGaussianBlur stdDeviation="5"/>
<feColorMatrix type="matrix" values="0 0 0 0 0.2 0 0 0 0 0.2 0 0 0 0 0.2 0 0 0 0.25 0"/>
<feBlend mode="normal" in2="BackgroundImageFix" result="effect1_dropShadow"/>
<feColorMatrix in="SourceAlpha" type="matrix" values="0 0 0 0 0 0 0 0 0 0 0 0 0 0 0 0 0 0 127 0"/>
<feOffset dx="5" dy="5"/>
<feGaussianBlur stdDeviation="6"/>
<feColorMatrix type="matrix" values="0 0 0 0 0 0 0 0 0 0 0 0 0 0 0 0 0 0 0.25 0"/>
<feBlend mode="normal" in2="effect1_dropShadow" result="effect2_dropShadow"/>
<feBlend mode="normal" in="SourceGraphic" in2="effect2_dropShadow" result="shape"/>
<feColorMatrix in="SourceAlpha" type="matrix" values="0 0 0 0 0 0 0 0 0 0 0 0 0 0 0 0 0 0 127 0" result="hardAlpha"/>
<feOffset dx="-3" dy="-3"/>
<feGaussianBlur stdDeviation="5"/>
<feComposite in2="hardAlpha" operator="arithmetic" k2="-1" k3="1"/>
<feColorMatrix type="matrix" values="0 0 0 0 0.191667 0 0 0 0 0.191667 0 0 0 0 0.191667 0 0 0 0.25 0"/>
<feBlend mode="normal" in2="shape" result="effect3_innerShadow"/>
</filter>
</defs>
</svg>
