<svg width="102" height="102" viewBox="0 0 102 102" fill="none" xmlns="http://www.w3.org/2000/svg">
<g filter="url(#filter0_ddi)">
<circle cx="50" cy="50" r="35" fill="#CCCCCC" fill-opacity="0.7"/>
</g>
<path opacity="0.8" d="M56.8789 44.9844C56.8789 46.4036 56.5013 47.6667 55.7461 48.7734C55.0039 49.8802 53.9948 50.7461 52.7188 51.3711C54.2031 52.0091 55.375 52.9401 56.2344 54.1641C57.1068 55.388 57.543 56.7747 57.543 58.3242C57.543 60.7852 56.7096 62.7448 55.043 64.2031C53.3893 65.6615 51.2083 66.3906 48.5 66.3906C45.7656 66.3906 43.5716 65.6615 41.918 64.2031C40.2773 62.7318 39.457 60.7721 39.457 58.3242C39.457 56.7878 39.8737 55.401 40.707 54.1641C41.5534 52.9271 42.7188 51.9896 44.2031 51.3516C42.9401 50.7266 41.944 49.8607 41.2148 48.7539C40.4857 47.6471 40.1211 46.3906 40.1211 44.9844C40.1211 42.5885 40.8893 40.6875 42.4258 39.2812C43.9622 37.875 45.987 37.1719 48.5 37.1719C51 37.1719 53.0182 37.875 54.5547 39.2812C56.1042 40.6875 56.8789 42.5885 56.8789 44.9844ZM53.9297 58.2461C53.9297 56.6576 53.4219 55.362 52.4062 54.3594C51.4036 53.3568 50.0885 52.8555 48.4609 52.8555C46.8333 52.8555 45.5247 53.3503 44.5352 54.3398C43.5586 55.3294 43.0703 56.6315 43.0703 58.2461C43.0703 59.8607 43.5456 61.1302 44.4961 62.0547C45.4596 62.9792 46.7943 63.4414 48.5 63.4414C50.1927 63.4414 51.5208 62.9792 52.4844 62.0547C53.4479 61.1172 53.9297 59.8477 53.9297 58.2461ZM48.5 40.1406C47.0807 40.1406 45.9284 40.5833 45.043 41.4688C44.1706 42.3411 43.7344 43.5326 43.7344 45.043C43.7344 46.4883 44.1641 47.6602 45.0234 48.5586C45.8958 49.444 47.0547 49.8867 48.5 49.8867C49.9453 49.8867 51.0977 49.444 51.957 48.5586C52.8294 47.6602 53.2656 46.4883 53.2656 45.043C53.2656 43.5977 52.8164 42.4193 51.918 41.5078C51.0195 40.5964 49.8802 40.1406 48.5 40.1406Z" fill="#848484"/>
<defs>
<filter id="filter0_ddi" x="0" y="0" width="102" height="102" filterUnits="userSpaceOnUse" color-interpolation-filters="sRGB">
<feFlood flood-opacity="0" result="BackgroundImageFix"/>
<feColorMatrix in="SourceAlpha" type="matrix" values="0 0 0 0 0 0 0 0 0 0 0 0 0 0 0 0 0 0 127 0"/>
<feOffset dx="-5" dy="-5"/>
<feGaussianBlur stdDeviation="5"/>
<feColorMatrix type="matrix" values="0 0 0 0 1 0 0 0 0 1 0 0 0 0 1 0 0 0 0.66 0"/>
<feBlend mode="normal" in2="BackgroundImageFix" result="effect1_dropShadow"/>
<feColorMatrix in="SourceAlpha" type="matrix" values="0 0 0 0 0 0 0 0 0 0 0 0 0 0 0 0 0 0 127 0"/>
<feOffset dx="5" dy="5"/>
<feGaussianBlur stdDeviation="6"/>
<feColorMatrix type="matrix" values="0 0 0 0 0 0 0 0 0 0 0 0 0 0 0 0 0 0 0.1 0"/>
<feBlend mode="normal" in2="effect1_dropShadow" result="effect2_dropShadow"/>
<feBlend mode="normal" in="SourceGraphic" in2="effect2_dropShadow" result="shape"/>
<feColorMatrix in="SourceAlpha" type="matrix" values="0 0 0 0 0 0 0 0 0 0 0 0 0 0 0 0 0 0 127 0" result="hardAlpha"/>
<feOffset dx="-3" dy="-3"/>
<feGaussianBlur stdDeviation="5"/>
<feComposite in2="hardAlpha" operator="arithmetic" k2="-1" k3="1"/>
<feColorMatrix type="matrix" values="0 0 0 0 1 0 0 0 0 1 0 0 0 0 1 0 0 0 0.29 0"/>
<feBlend mode="normal" in2="shape" result="effect3_innerShadow"/>
</filter>
</defs>
</svg>
