<svg width="102" height="102" viewBox="0 0 102 102" fill="none" xmlns="http://www.w3.org/2000/svg">
<g filter="url(#filter0_ddi)">
<circle cx="50" cy="50" r="35" fill="#CCCCCC" fill-opacity="0.7"/>
</g>
<path opacity="0.9" d="M53.4805 53.5C52.7253 54.3984 51.8203 55.1211 50.7656 55.668C49.724 56.2148 48.5781 56.4883 47.3281 56.4883C45.6875 56.4883 44.2552 56.0846 43.0312 55.2773C41.8203 54.4701 40.8828 53.3372 40.2188 51.8789C39.5547 50.4076 39.2227 48.7865 39.2227 47.0156C39.2227 45.1146 39.5807 43.4023 40.2969 41.8789C41.026 40.3555 42.0547 39.1901 43.3828 38.3828C44.7109 37.5755 46.2604 37.1719 48.0312 37.1719C50.8438 37.1719 53.0573 38.2266 54.6719 40.3359C56.2995 42.4323 57.1133 45.2969 57.1133 48.9297V49.9844C57.1133 55.5182 56.0195 59.5612 53.832 62.1133C51.6445 64.6523 48.3438 65.9544 43.9297 66.0195H43.2266V62.9727H43.9883C46.9701 62.9206 49.2617 62.1458 50.8633 60.6484C52.4648 59.138 53.3372 56.7552 53.4805 53.5ZM47.9141 53.5C49.125 53.5 50.2383 53.1289 51.2539 52.3867C52.2826 51.6445 53.0312 50.7266 53.5 49.6328V48.1875C53.5 45.8177 52.9857 43.8906 51.957 42.4062C50.9284 40.9219 49.6263 40.1797 48.0508 40.1797C46.4622 40.1797 45.1862 40.7917 44.2227 42.0156C43.2591 43.2266 42.7773 44.8281 42.7773 46.8203C42.7773 48.7604 43.2396 50.362 44.1641 51.625C45.1016 52.875 46.3516 53.5 47.9141 53.5Z" fill="#848484"/>
<defs>
<filter id="filter0_ddi" x="0" y="0" width="102" height="102" filterUnits="userSpaceOnUse" color-interpolation-filters="sRGB">
<feFlood flood-opacity="0" result="BackgroundImageFix"/>
<feColorMatrix in="SourceAlpha" type="matrix" values="0 0 0 0 0 0 0 0 0 0 0 0 0 0 0 0 0 0 127 0"/>
<feOffset dx="-5" dy="-5"/>
<feGaussianBlur stdDeviation="5"/>
<feColorMatrix type="matrix" values="0 0 0 0 1 0 0 0 0 1 0 0 0 0 1 0 0 0 0.66 0"/>
<feBlend mode="normal" in2="BackgroundImageFix" result="effect1_dropShadow"/>
<feColorMatrix in="SourceAlpha" type="matrix" values="0 0 0 0 0 0 0 0 0 0 0 0 0 0 0 0 0 0 127 0"/>
<feOffset dx="5" dy="5"/>
<feGaussianBlur stdDeviation="6"/>
<feColorMatrix type="matrix" values="0 0 0 0 0 0 0 0 0 0 0 0 0 0 0 0 0 0 0.1 0"/>
<feBlend mode="normal" in2="effect1_dropShadow" result="effect2_dropShadow"/>
<feBlend mode="normal" in="SourceGraphic" in2="effect2_dropShadow" result="shape"/>
<feColorMatrix in="SourceAlpha" type="matrix" values="0 0 0 0 0 0 0 0 0 0 0 0 0 0 0 0 0 0 127 0" result="hardAlpha"/>
<feOffset dx="-3" dy="-3"/>
<feGaussianBlur stdDeviation="5"/>
<feComposite in2="hardAlpha" operator="arithmetic" k2="-1" k3="1"/>
<feColorMatrix type="matrix" values="0 0 0 0 1 0 0 0 0 1 0 0 0 0 1 0 0 0 0.29 0"/>
<feBlend mode="normal" in2="shape" result="effect3_innerShadow"/>
</filter>
</defs>
</svg>
