<svg width="102" height="102" viewBox="0 0 102 102" fill="none" xmlns="http://www.w3.org/2000/svg">
<g filter="url(#filter0_ddi)">
<circle cx="50" cy="50" r="35" fill="black" fill-opacity="0.91"/>
</g>
<path d="M54.25 44.25L46.75 51.75M54.25 51.75L46.75 44.25L54.25 51.75Z" stroke="#FFA048" stroke-width="2" stroke-linecap="round"/>
<path d="M42.25 39C42.4829 38.6895 42.7848 38.4375 43.132 38.2639C43.4791 38.0904 43.8619 38 44.25 38H58C58.663 38 59.2989 38.2634 59.7678 38.7322C60.2366 39.2011 60.5 39.837 60.5 40.5V55.5C60.5 56.163 60.2366 56.7989 59.7678 57.2678C59.2989 57.7366 58.663 58 58 58H44.25C43.8619 58 43.4791 57.9096 43.132 57.7361C42.7848 57.5625 42.4829 57.3105 42.25 57L36.625 49.5C36.3004 49.0673 36.125 48.5409 36.125 48C36.125 47.4591 36.3004 46.9327 36.625 46.5L42.25 39V39Z" stroke="#FFA048" stroke-width="2" stroke-linecap="round" stroke-linejoin="round"/>
<defs>
<filter id="filter0_ddi" x="0" y="0" width="102" height="102" filterUnits="userSpaceOnUse" color-interpolation-filters="sRGB">
<feFlood flood-opacity="0" result="BackgroundImageFix"/>
<feColorMatrix in="SourceAlpha" type="matrix" values="0 0 0 0 0 0 0 0 0 0 0 0 0 0 0 0 0 0 127 0"/>
<feOffset dx="-5" dy="-5"/>
<feGaussianBlur stdDeviation="5"/>
<feColorMatrix type="matrix" values="0 0 0 0 0.2 0 0 0 0 0.2 0 0 0 0 0.2 0 0 0 0.25 0"/>
<feBlend mode="normal" in2="BackgroundImageFix" result="effect1_dropShadow"/>
<feColorMatrix in="SourceAlpha" type="matrix" values="0 0 0 0 0 0 0 0 0 0 0 0 0 0 0 0 0 0 127 0"/>
<feOffset dx="5" dy="5"/>
<feGaussianBlur stdDeviation="6"/>
<feColorMatrix type="matrix" values="0 0 0 0 0 0 0 0 0 0 0 0 0 0 0 0 0 0 0.25 0"/>
<feBlend mode="normal" in2="effect1_dropShadow" result="effect2_dropShadow"/>
<feBlend mode="normal" in="SourceGraphic" in2="effect2_dropShadow" result="shape"/>
<feColorMatrix in="SourceAlpha" type="matrix" values="0 0 0 0 0 0 0 0 0 0 0 0 0 0 0 0 0 0 127 0" result="hardAlpha"/>
<feOffset dx="-3" dy="-3"/>
<feGaussianBlur stdDeviation="5"/>
<feComposite in2="hardAlpha" operator="arithmetic" k2="-1" k3="1"/>
<feColorMatrix type="matrix" values="0 0 0 0 0.191667 0 0 0 0 0.191667 0 0 0 0 0.191667 0 0 0 0.25 0"/>
<feBlend mode="normal" in2="shape" result="effect3_innerShadow"/>
</filter>
</defs>
</svg>
