<svg width="102" height="96" viewBox="0 0 102 96" fill="none" xmlns="http://www.w3.org/2000/svg">
<g filter="url(#filter0_ddi)">
<circle cx="50" cy="50" r="35" fill="#CCCCCC" fill-opacity="0.7"/>
</g>
<path d="M42.6797 48.5547C42.6797 49.1172 42.5703 49.6562 42.3516 50.1719C42.1484 50.6719 41.8594 51.1094 41.4844 51.4844C41.1094 51.8594 40.6641 52.1641 40.1484 52.3984C39.6484 52.6172 39.1016 52.7266 38.5078 52.7266H37.8516C37.2578 52.7266 36.7031 52.6172 36.1875 52.3984C35.6875 52.1641 35.25 51.8594 34.875 51.4844C34.5 51.1094 34.2031 50.6719 33.9844 50.1719C33.7656 49.6562 33.6562 49.1172 33.6562 48.5547V40.375C33.6562 39.8125 33.7656 39.2812 33.9844 38.7812C34.2031 38.2656 34.5 37.8203 34.875 37.4453C35.25 37.0703 35.6875 36.7734 36.1875 36.5547C36.7031 36.3203 37.2578 36.2031 37.8516 36.2031H38.5078C39.1016 36.2031 39.6484 36.3203 40.1484 36.5547C40.6641 36.7734 41.1094 37.0703 41.4844 37.4453C41.8594 37.8203 42.1484 38.2656 42.3516 38.7812C42.5703 39.2812 42.6797 39.8125 42.6797 40.375V48.5547ZM40.3828 40.375C40.3828 40.1094 40.3281 39.8594 40.2188 39.625C40.125 39.3906 39.9844 39.1875 39.7969 39.0156C39.625 38.8438 39.4219 38.7109 39.1875 38.6172C38.9531 38.5078 38.6953 38.4531 38.4141 38.4531H37.9453C37.6641 38.4531 37.4062 38.5078 37.1719 38.6172C36.9375 38.7109 36.7266 38.8438 36.5391 39.0156C36.3672 39.1875 36.2266 39.3906 36.1172 39.625C36.0234 39.8594 35.9766 40.1094 35.9766 40.375V48.5547C35.9766 49.0859 36.1641 49.5391 36.5391 49.9141C36.9297 50.2734 37.3984 50.4531 37.9453 50.4531H38.4141C38.9609 50.4531 39.4219 50.2734 39.7969 49.9141C40.1875 49.5391 40.3828 49.0859 40.3828 48.5547V40.375ZM59.3438 66.0156C59.3438 66.5781 59.2344 67.1172 59.0156 67.6328C58.8125 68.1328 58.5234 68.5703 58.1484 68.9453C57.7734 69.3203 57.3281 69.625 56.8125 69.8594C56.3125 70.0781 55.7656 70.1875 55.1719 70.1875H54.4922C53.9141 70.1875 53.3672 70.0781 52.8516 69.8594C52.3516 69.625 51.9141 69.3203 51.5391 68.9453C51.1641 68.5703 50.8672 68.1328 50.6484 67.6328C50.4297 67.1172 50.3203 66.5781 50.3203 66.0156V57.8594C50.3203 57.2969 50.4297 56.7656 50.6484 56.2656C50.8672 55.75 51.1641 55.3047 51.5391 54.9297C51.9141 54.5547 52.3516 54.2578 52.8516 54.0391C53.3672 53.8047 53.9141 53.6875 54.4922 53.6875H55.1719C55.7656 53.6875 56.3125 53.8047 56.8125 54.0391C57.3281 54.2578 57.7734 54.5547 58.1484 54.9297C58.5234 55.3047 58.8125 55.75 59.0156 56.2656C59.2344 56.7656 59.3438 57.2969 59.3438 57.8594V66.0156ZM57.0469 57.8594C57.0469 57.5938 56.9922 57.3438 56.8828 57.1094C56.7891 56.875 56.6484 56.6719 56.4609 56.5C56.2891 56.3281 56.0859 56.1953 55.8516 56.1016C55.6172 55.9922 55.3594 55.9375 55.0781 55.9375H54.5859C54.3047 55.9375 54.0469 55.9922 53.8125 56.1016C53.5781 56.1953 53.3672 56.3281 53.1797 56.5C53.0078 56.6719 52.8672 56.875 52.7578 57.1094C52.6641 57.3438 52.6172 57.5938 52.6172 57.8594V66.0156C52.6172 66.2812 52.6641 66.5312 52.7578 66.7656C52.8672 67 53.0078 67.2031 53.1797 67.375C53.3672 67.5469 53.5781 67.6875 53.8125 67.7969C54.0469 67.8906 54.3047 67.9375 54.5859 67.9375H55.0781C55.3594 67.9375 55.6172 67.8906 55.8516 67.7969C56.0859 67.6875 56.2891 67.5469 56.4609 67.375C56.6484 67.2031 56.7891 67 56.8828 66.7656C56.9922 66.5312 57.0469 66.2812 57.0469 66.0156V57.8594ZM35.5781 70L54.7266 36.3906H57.4219L38.2734 70H35.5781Z" fill="#48BDFF"/>
<defs>
<filter id="filter0_ddi" x="0" y="0" width="102" height="102" filterUnits="userSpaceOnUse" color-interpolation-filters="sRGB">
<feFlood flood-opacity="0" result="BackgroundImageFix"/>
<feColorMatrix in="SourceAlpha" type="matrix" values="0 0 0 0 0 0 0 0 0 0 0 0 0 0 0 0 0 0 127 0"/>
<feOffset dx="-5" dy="-5"/>
<feGaussianBlur stdDeviation="5"/>
<feColorMatrix type="matrix" values="0 0 0 0 1 0 0 0 0 1 0 0 0 0 1 0 0 0 0.66 0"/>
<feBlend mode="normal" in2="BackgroundImageFix" result="effect1_dropShadow"/>
<feColorMatrix in="SourceAlpha" type="matrix" values="0 0 0 0 0 0 0 0 0 0 0 0 0 0 0 0 0 0 127 0"/>
<feOffset dx="5" dy="5"/>
<feGaussianBlur stdDeviation="6"/>
<feColorMatrix type="matrix" values="0 0 0 0 0 0 0 0 0 0 0 0 0 0 0 0 0 0 0.1 0"/>
<feBlend mode="normal" in2="effect1_dropShadow" result="effect2_dropShadow"/>
<feBlend mode="normal" in="SourceGraphic" in2="effect2_dropShadow" result="shape"/>
<feColorMatrix in="SourceAlpha" type="matrix" values="0 0 0 0 0 0 0 0 0 0 0 0 0 0 0 0 0 0 127 0" result="hardAlpha"/>
<feOffset dx="-3" dy="-3"/>
<feGaussianBlur stdDeviation="5"/>
<feComposite in2="hardAlpha" operator="arithmetic" k2="-1" k3="1"/>
<feColorMatrix type="matrix" values="0 0 0 0 1 0 0 0 0 1 0 0 0 0 1 0 0 0 0.29 0"/>
<feBlend mode="normal" in2="shape" result="effect3_innerShadow"/>
</filter>
</defs>
</svg>
