<svg width="102" height="92" viewBox="0 0 102 92" fill="none" xmlns="http://www.w3.org/2000/svg">
<g filter="url(#filter0_ddi)">
<circle cx="50" cy="50" r="35" fill="black" fill-opacity="0.91"/>
</g>
<path d="M44.4531 48.7031C44.4531 49.0781 44.3802 49.4375 44.2344 49.7812C44.099 50.1146 43.9062 50.4062 43.6562 50.6562C43.4062 50.9062 43.1094 51.1094 42.7656 51.2656C42.4323 51.4115 42.0677 51.4844 41.6719 51.4844H41.2344C40.8385 51.4844 40.4688 51.4115 40.125 51.2656C39.7917 51.1094 39.5 50.9062 39.25 50.6562C39 50.4062 38.8021 50.1146 38.6562 49.7812C38.5104 49.4375 38.4375 49.0781 38.4375 48.7031V43.25C38.4375 42.875 38.5104 42.5208 38.6562 42.1875C38.8021 41.8438 39 41.5469 39.25 41.2969C39.5 41.0469 39.7917 40.849 40.125 40.7031C40.4688 40.5469 40.8385 40.4688 41.2344 40.4688H41.6719C42.0677 40.4688 42.4323 40.5469 42.7656 40.7031C43.1094 40.849 43.4062 41.0469 43.6562 41.2969C43.9062 41.5469 44.099 41.8438 44.2344 42.1875C44.3802 42.5208 44.4531 42.875 44.4531 43.25V48.7031ZM42.9219 43.25C42.9219 43.0729 42.8854 42.9062 42.8125 42.75C42.75 42.5938 42.6562 42.4583 42.5312 42.3438C42.4167 42.2292 42.2812 42.1406 42.125 42.0781C41.9688 42.0052 41.7969 41.9688 41.6094 41.9688H41.2969C41.1094 41.9688 40.9375 42.0052 40.7812 42.0781C40.625 42.1406 40.4844 42.2292 40.3594 42.3438C40.2448 42.4583 40.151 42.5938 40.0781 42.75C40.0156 42.9062 39.9844 43.0729 39.9844 43.25V48.7031C39.9844 49.0573 40.1094 49.3594 40.3594 49.6094C40.6198 49.849 40.9323 49.9688 41.2969 49.9688H41.6094C41.974 49.9688 42.2812 49.849 42.5312 49.6094C42.7917 49.3594 42.9219 49.0573 42.9219 48.7031V43.25ZM55.5625 60.3438C55.5625 60.7188 55.4896 61.0781 55.3438 61.4219C55.2083 61.7552 55.0156 62.0469 54.7656 62.2969C54.5156 62.5469 54.2188 62.75 53.875 62.9062C53.5417 63.0521 53.1771 63.125 52.7812 63.125H52.3281C51.9427 63.125 51.5781 63.0521 51.2344 62.9062C50.901 62.75 50.6094 62.5469 50.3594 62.2969C50.1094 62.0469 49.9115 61.7552 49.7656 61.4219C49.6198 61.0781 49.5469 60.7188 49.5469 60.3438V54.9062C49.5469 54.5312 49.6198 54.1771 49.7656 53.8438C49.9115 53.5 50.1094 53.2031 50.3594 52.9531C50.6094 52.7031 50.901 52.5052 51.2344 52.3594C51.5781 52.2031 51.9427 52.125 52.3281 52.125H52.7812C53.1771 52.125 53.5417 52.2031 53.875 52.3594C54.2188 52.5052 54.5156 52.7031 54.7656 52.9531C55.0156 53.2031 55.2083 53.5 55.3438 53.8438C55.4896 54.1771 55.5625 54.5312 55.5625 54.9062V60.3438ZM54.0312 54.9062C54.0312 54.7292 53.9948 54.5625 53.9219 54.4062C53.8594 54.25 53.7656 54.1146 53.6406 54C53.526 53.8854 53.3906 53.7969 53.2344 53.7344C53.0781 53.6615 52.9062 53.625 52.7188 53.625H52.3906C52.2031 53.625 52.0312 53.6615 51.875 53.7344C51.7188 53.7969 51.5781 53.8854 51.4531 54C51.3385 54.1146 51.2448 54.25 51.1719 54.4062C51.1094 54.5625 51.0781 54.7292 51.0781 54.9062V60.3438C51.0781 60.5208 51.1094 60.6875 51.1719 60.8438C51.2448 61 51.3385 61.1354 51.4531 61.25C51.5781 61.3646 51.7188 61.4583 51.875 61.5312C52.0312 61.5938 52.2031 61.625 52.3906 61.625H52.7188C52.9062 61.625 53.0781 61.5938 53.2344 61.5312C53.3906 61.4583 53.526 61.3646 53.6406 61.25C53.7656 61.1354 53.8594 61 53.9219 60.8438C53.9948 60.6875 54.0312 60.5208 54.0312 60.3438V54.9062ZM39.7188 63L52.4844 40.5938H54.2812L41.5156 63H39.7188Z" fill="#48BDFF"/>
<defs>
<filter id="filter0_ddi" x="0" y="0" width="102" height="102" filterUnits="userSpaceOnUse" color-interpolation-filters="sRGB">
<feFlood flood-opacity="0" result="BackgroundImageFix"/>
<feColorMatrix in="SourceAlpha" type="matrix" values="0 0 0 0 0 0 0 0 0 0 0 0 0 0 0 0 0 0 127 0"/>
<feOffset dx="-5" dy="-5"/>
<feGaussianBlur stdDeviation="5"/>
<feColorMatrix type="matrix" values="0 0 0 0 0.2 0 0 0 0 0.2 0 0 0 0 0.2 0 0 0 0.25 0"/>
<feBlend mode="normal" in2="BackgroundImageFix" result="effect1_dropShadow"/>
<feColorMatrix in="SourceAlpha" type="matrix" values="0 0 0 0 0 0 0 0 0 0 0 0 0 0 0 0 0 0 127 0"/>
<feOffset dx="5" dy="5"/>
<feGaussianBlur stdDeviation="6"/>
<feColorMatrix type="matrix" values="0 0 0 0 0 0 0 0 0 0 0 0 0 0 0 0 0 0 0.25 0"/>
<feBlend mode="normal" in2="effect1_dropShadow" result="effect2_dropShadow"/>
<feBlend mode="normal" in="SourceGraphic" in2="effect2_dropShadow" result="shape"/>
<feColorMatrix in="SourceAlpha" type="matrix" values="0 0 0 0 0 0 0 0 0 0 0 0 0 0 0 0 0 0 127 0" result="hardAlpha"/>
<feOffset dx="-3" dy="-3"/>
<feGaussianBlur stdDeviation="5"/>
<feComposite in2="hardAlpha" operator="arithmetic" k2="-1" k3="1"/>
<feColorMatrix type="matrix" values="0 0 0 0 0.191667 0 0 0 0 0.191667 0 0 0 0 0.191667 0 0 0 0.25 0"/>
<feBlend mode="normal" in2="shape" result="effect3_innerShadow"/>
</filter>
</defs>
</svg>
