<svg width="414" height="736" viewBox="0 0 414 736" fill="none" xmlns="http://www.w3.org/2000/svg">
<g clip-path="url(#clip0)">
<path d="M0 80C0 42.2876 0 23.4315 11.7157 11.7157C23.4315 0 42.2876 0 80 0H334C371.712 0 390.569 0 402.284 11.7157C414 23.4315 414 42.2876 414 80V656C414 693.712 414 712.569 402.284 724.284C390.569 736 371.712 736 334 736H80C42.2876 736 23.4315 736 11.7157 724.284C0 712.569 0 693.712 0 656V80Z" fill="#EF8120" fill-opacity="0.63"/>
<g style="mix-blend-mode:overlay">
<g filter="url(#filter0_i)">
<path d="M1 76C1 38.2876 1 19.4315 12.7157 7.71573C24.4315 -4 43.2876 -4 81 -4H333C370.712 -4 389.569 -4 401.284 7.71573C413 19.4315 413 38.2876 413 76V225H1V76Z" fill="white" fill-opacity="0.28"/>
</g>
<path d="M1.5 76C1.5 57.1297 1.50106 43.0272 2.96001 32.1758C4.41702 21.3386 7.3198 13.8188 13.0693 8.06928C18.8188 2.3198 26.3386 -0.582981 37.1758 -2.03999C48.0272 -3.49894 62.1297 -3.5 81 -3.5H333C351.87 -3.5 365.973 -3.49894 376.824 -2.03999C387.661 -0.582981 395.181 2.3198 400.931 8.06928C406.68 13.8188 409.583 21.3386 411.04 32.1758C412.499 43.0272 412.5 57.1297 412.5 76V224.5H1.5V76Z" stroke="#FFA048" stroke-opacity="0.1"/>
</g>
</g>
<defs>
<filter id="filter0_i" x="1" y="-4" width="412" height="233" filterUnits="userSpaceOnUse" color-interpolation-filters="sRGB">
<feFlood flood-opacity="0" result="BackgroundImageFix"/>
<feBlend mode="normal" in="SourceGraphic" in2="BackgroundImageFix" result="shape"/>
<feColorMatrix in="SourceAlpha" type="matrix" values="0 0 0 0 0 0 0 0 0 0 0 0 0 0 0 0 0 0 127 0" result="hardAlpha"/>
<feOffset dy="4"/>
<feGaussianBlur stdDeviation="2"/>
<feComposite in2="hardAlpha" operator="arithmetic" k2="-1" k3="1"/>
<feColorMatrix type="matrix" values="0 0 0 0 0 0 0 0 0 0 0 0 0 0 0 0 0 0 0.25 0"/>
<feBlend mode="normal" in2="shape" result="effect1_innerShadow"/>
</filter>
<clipPath id="clip0">
<path d="M0 80C0 42.2876 0 23.4315 11.7157 11.7157C23.4315 0 42.2876 0 80 0H334C371.712 0 390.569 0 402.284 11.7157C414 23.4315 414 42.2876 414 80V656C414 693.712 414 712.569 402.284 724.284C390.569 736 371.712 736 334 736H80C42.2876 736 23.4315 736 11.7157 724.284C0 712.569 0 693.712 0 656V80Z" fill="white"/>
</clipPath>
</defs>
</svg>
