<svg width="194" height="51" viewBox="0 0 194 51" fill="none" xmlns="http://www.w3.org/2000/svg">
<rect x="2.5" y="2.5" width="189" height="46" rx="7.5" fill="#FFCB05" stroke="#FFCB05" stroke-width="5"/>
<path d="M69.293 26.7695H62.8242V30.8359H70.4648V34H58.7109V16.9375H70.4883V20.1133H62.8242V23.7109H69.293V26.7695ZM86.3906 34H82.3008L76.2539 23.3828V34H72.1406V16.9375H76.2539L82.2891 27.5547V16.9375H86.3906V34ZM102.035 20.1133H96.9141V34H92.8008V20.1133H87.7734V16.9375H102.035V20.1133ZM114.363 26.7695H107.895V30.8359H115.535V34H103.781V16.9375H115.559V20.1133H107.895V23.7109H114.363V26.7695ZM123.551 27.9766H121.324V34H117.211V16.9375H123.926C125.949 16.9375 127.531 17.3867 128.672 18.2852C129.812 19.1836 130.383 20.4531 130.383 22.0938C130.383 23.2812 130.141 24.2656 129.656 25.0469C129.18 25.8281 128.43 26.4609 127.406 26.9453L130.969 33.8242V34H126.562L123.551 27.9766ZM121.324 24.8008H123.926C124.707 24.8008 125.293 24.5977 125.684 24.1914C126.082 23.7773 126.281 23.2031 126.281 22.4688C126.281 21.7344 126.082 21.1602 125.684 20.7461C125.285 20.3242 124.699 20.1133 123.926 20.1133H121.324V24.8008Z" fill="black" fill-opacity="0.48"/>
</svg>
